<svg xmlns="http://www.w3.org/2000/svg" width="1200" height="340" viewBox="0 0 1200 340" role="img" aria-labelledby="title desc">
  <title id="title">Adi Goldstein — electronics engineer</title>
  <desc id="desc">Abstract circuit lines connect a light source, sensor and digital interface.</desc>
  <defs>
    <linearGradient id="bg" x2="1" y2="1"><stop stop-color="#10182D"/><stop offset=".55" stop-color="#172540"/><stop offset="1" stop-color="#17223A"/></linearGradient>
    <linearGradient id="beam"><stop stop-color="#82E5EF"/><stop offset=".5" stop-color="#B8A5FF"/><stop offset="1" stop-color="#FFB786"/></linearGradient>
    <filter id="glow"><feGaussianBlur stdDeviation="16"/></filter>
    <pattern id="dots" width="28" height="28" patternUnits="userSpaceOnUse"><circle cx="2" cy="2" r="1" fill="#A9BDD7" opacity=".14"/></pattern>
  </defs>
  <rect width="1200" height="340" rx="24" fill="url(#bg)"/>
  <rect width="1200" height="340" rx="24" fill="url(#dots)"/>
  <circle cx="1040" cy="135" r="112" fill="#9D8CFF" opacity=".14" filter="url(#glow)"/>
  <circle cx="856" cy="226" r="72" fill="#55DAD5" opacity=".16" filter="url(#glow)"/>
  <path d="M600 260h120l45-46h135l58-69h155" fill="none" stroke="url(#beam)" stroke-width="3" opacity=".7"/>
  <path d="M618 285h102l61-35h76l85-112h148" fill="none" stroke="#75B9DD" stroke-width="2" opacity=".35"/>
  <path d="M628 116h122l60 40h95l62-45h127" fill="none" stroke="#AA93EE" stroke-width="2" opacity=".3"/>
  <circle cx="766" cy="214" r="7" fill="#7EE1E8"/><circle cx="901" cy="214" r="7" fill="#C7A8F8"/><circle cx="960" cy="144" r="7" fill="#FFB889"/>
  <circle cx="1050" cy="138" r="54" fill="none" stroke="#C2B4FF" stroke-width="2" opacity=".65"/>
  <circle cx="1050" cy="138" r="34" fill="none" stroke="#C2B4FF" stroke-width="2" opacity=".7"/>
  <circle cx="1050" cy="138" r="10" fill="#D8CFFF"/>
  <rect x="817" y="216" width="80" height="66" rx="10" fill="#1F3855" stroke="#71CFDC" stroke-width="2"/>
  <path d="M838 249h38m-19-17v34" stroke="#8BE8E7" stroke-width="3" stroke-linecap="round" opacity=".85"/>
  <text x="72" y="132" font-family="Segoe UI, Arial, sans-serif" font-size="53" font-weight="700" fill="#F8FAFF">ADI GOLDSTEIN</text>
  <rect x="73" y="156" width="172" height="5" rx="2.5" fill="url(#beam)"/>
  <text x="72" y="216" font-family="Segoe UI, Arial, sans-serif" font-size="24" font-weight="500" fill="#DCE7F8">From a physical signal to a useful experience.</text>
  <text x="72" y="264" font-family="Segoe UI, Arial, sans-serif" font-size="17" fill="#9EB3D1">ELECTRONICS ENGINEER  /  EMBEDDED SYSTEMS  /  FPGA</text>
</svg>
